HIERARCHY
ROOT ZeroOut_JNT
{
  OFFSET 0 0 0
  CHANNELS 6 Xposition Yposition Zposition Zrotation Xrotation Yrotation
  JOINT SpineFinal_1_JNT
  {
    OFFSET 0 59.8141 -42.9993
    CHANNELS 6 Xposition Yposition Zposition Zrotation Xrotation Yrotation
    JOINT l_legIKClavicle_Root_JNT
    {
      OFFSET -0.323145 -1.55994 9.59625
      CHANNELS 6 Xposition Yposition Zposition Zrotation Xrotation Yrotation
      JOINT l_legBlendRoot_JNT
      {
        OFFSET 16.1374 0 0
        CHANNELS 6 Xposition Yposition Zposition Zrotation Xrotation Yrotation
        JOINT l_legBlendMiddle_JNT
        {
          OFFSET 27.0969 0 0
          CHANNELS 6 Xposition Yposition Zposition Zrotation Xrotation Yrotation
          JOINT l_legBlendEnd_JNT
          {
            OFFSET 24.8414 0 0
            CHANNELS 6 Xposition Yposition Zposition Zrotation Xrotation Yrotation
            JOINT l_legBlendTip_JNT
            {
              OFFSET 6.77858 0 0
              CHANNELS 6 Xposition Yposition Zposition Zrotation Xrotation Yrotation
              End Site
              {
                OFFSET 0 0 0
              }
            }
          }
        }
      }
    }
    JOINT SpineFinal_2_JNT
    {
      OFFSET -19.5366 0.0587492 -0.00256357
      CHANNELS 6 Xposition Yposition Zposition Zrotation Xrotation Yrotation
      JOINT SpineFinal_3_JNT
      {
        OFFSET -19.4679 1.47333 -0.00136182
        CHANNELS 6 Xposition Yposition Zposition Zrotation Xrotation Yrotation
        JOINT SpineFinal_4_JNT
        {
          OFFSET -18.2335 5.20609 0
          CHANNELS 6 Xposition Yposition Zposition Zrotation Xrotation Yrotation
          JOINT SpineFinal_5_JNT
          {
            OFFSET -17.3574 8.01768 -1.82773e-005
            CHANNELS 6 Xposition Yposition Zposition Zrotation Xrotation Yrotation
            JOINT SpineFinal_6_JNT
            {
              OFFSET -19.144 8.35871 0
              CHANNELS 6 Xposition Yposition Zposition Zrotation Xrotation Yrotation
              JOINT SpineFinal_7_JNT
              {
                OFFSET -16.3943 7.24542 0
                CHANNELS 6 Xposition Yposition Zposition Zrotation Xrotation Yrotation
                JOINT SpineFinal_8_JNT
                {
                  OFFSET -19.3877 2.40349 0
                  CHANNELS 6 Xposition Yposition Zposition Zrotation Xrotation Yrotation
                  JOINT head_JNT
                  {
                    OFFSET -13.796 -11.6756 0
                    CHANNELS 6 Xposition Yposition Zposition Zrotation Xrotation Yrotation
                    JOINT l_hornRoot_JNT
                    {
                      OFFSET -15.825 14.8229 15.3879
                      CHANNELS 6 Xposition Yposition Zposition Zrotation Xrotation Yrotation
                      JOINT l_hornMid_JNT
                      {
                        OFFSET 6.55118 0 0
                        CHANNELS 6 Xposition Yposition Zposition Zrotation Xrotation Yrotation
                        JOINT l_hornEnd_JNT
                        {
                          OFFSET 6.73503 0 0
                          CHANNELS 6 Xposition Yposition Zposition Zrotation Xrotation Yrotation
                          End Site
                          {
                            OFFSET 0 0 0
                          }
                        }
                      }
                    }
                    JOINT headJend_JNT
                    {
                      OFFSET 1.34858 -27.5886 0
                      CHANNELS 6 Xposition Yposition Zposition Zrotation Xrotation Yrotation
                      End Site
                      {
                        OFFSET 0 0 0
                      }
                    }
                    JOINT r_hornRoot_JNT
                    {
                      OFFSET -15.825 14.8229 -15.3879
                      CHANNELS 6 Xposition Yposition Zposition Zrotation Xrotation Yrotation
                      JOINT r_hornMid_JNT
                      {
                        OFFSET -2.40814 5.46468 -2.69372
                        CHANNELS 6 Xposition Yposition Zposition Zrotation Xrotation Yrotation
                        JOINT r_hornEnd_JNT
                        {
                          OFFSET -2.40922 6.0083 -1.85921
                          CHANNELS 6 Xposition Yposition Zposition Zrotation Xrotation Yrotation
                          End Site
                          {
                            OFFSET 0 0 0
                          }
                        }
                      }
                    }
                    JOINT m_upLip_JNT
                    {
                      OFFSET 4.72477 -9.87974 0
                      CHANNELS 6 Xposition Yposition Zposition Zrotation Xrotation Yrotation
                      JOINT l_lipUpRoot_JNT
                      {
                        OFFSET 2.68891 -0.690234 4.02874
                        CHANNELS 6 Xposition Yposition Zposition Zrotation Xrotation Yrotation
                        JOINT l_lipUpEnd_JNT
                        {
                          OFFSET 0 0 -14.9226
                          CHANNELS 6 Xposition Yposition Zposition Zrotation Xrotation Yrotation
                          End Site
                          {
                            OFFSET 0 0 0
                          }
                        }
                      }
                      JOINT m_upLipRoot_JNT
                      {
                        OFFSET 0 0 3.94939
                        CHANNELS 6 Xposition Yposition Zposition Zrotation Xrotation Yrotation
                        JOINT m_upLipEnd_JNT
                        {
                          OFFSET 0 0 15.0019
                          CHANNELS 6 Xposition Yposition Zposition Zrotation Xrotation Yrotation
                          End Site
                          {
                            OFFSET 0 0 0
                          }
                        }
                      }
                      JOINT r_lipUpRoot_JNT
                      {
                        OFFSET -2.689 -0.690236 4.02875
                        CHANNELS 6 Xposition Yposition Zposition Zrotation Xrotation Yrotation
                        JOINT r_lipUpEnd_JNT
                        {
                          OFFSET 9.35075e-005 -0.000392738 14.9226
                          CHANNELS 6 Xposition Yposition Zposition Zrotation Xrotation Yrotation
                          End Site
                          {
                            OFFSET 0 0 0
                          }
                        }
                      }
                    }
                    JOINT m_DnLip_JNT
                    {
                      OFFSET 6.0207 -9.81639 0
                      CHANNELS 6 Xposition Yposition Zposition Zrotation Xrotation Yrotation
                      JOINT l_lipDn_JNT
                      {
                        OFFSET 2.71301 -0.162748 3.99146
                        CHANNELS 6 Xposition Yposition Zposition Zrotation Xrotation Yrotation
                        JOINT l_lipEnd_JNT
                        {
                          OFFSET 0 0 -14.9599
                          CHANNELS 6 Xposition Yposition Zposition Zrotation Xrotation Yrotation
                          End Site
                          {
                            OFFSET 0 0 0
                          }
                        }
                      }
                      JOINT m_dnLip_JNT
                      {
                        OFFSET 0 -0.0431035 3.99141
                        CHANNELS 6 Xposition Yposition Zposition Zrotation Xrotation Yrotation
                        JOINT m_dnLipEnd_JNT
                        {
                          OFFSET 0 0 14.9599
                          CHANNELS 6 Xposition Yposition Zposition Zrotation Xrotation Yrotation
                          End Site
                          {
                            OFFSET 0 0 0
                          }
                        }
                      }
                      JOINT r_lipDn_JNT
                      {
                        OFFSET -2.71301 -0.162761 3.99141
                        CHANNELS 6 Xposition Yposition Zposition Zrotation Xrotation Yrotation
                        JOINT r_lipDnEnd_JNT
                        {
                          OFFSET 0 0 14.9599
                          CHANNELS 6 Xposition Yposition Zposition Zrotation Xrotation Yrotation
                          End Site
                          {
                            OFFSET 0 0 0
                          }
                        }
                      }
                    }
                    JOINT l_lid_JNT
                    {
                      OFFSET -7.85698 -6.72885 9.63956
                      CHANNELS 6 Xposition Yposition Zposition Zrotation Xrotation Yrotation
                      End Site
                      {
                        OFFSET 0 0 0
                      }
                    }
                    JOINT r_lid_JNT
                    {
                      OFFSET -7.85684 -6.72882 -9.63956
                      CHANNELS 6 Xposition Yposition Zposition Zrotation Xrotation Yrotation
                      End Site
                      {
                        OFFSET 0 0 0
                      }
                    }
                  }
                }
              }
            }
            JOINT l_FwClavicleRoot_JNT
            {
              OFFSET -0.15532 -4.55898 6.72563
              CHANNELS 6 Xposition Yposition Zposition Zrotation Xrotation Yrotation
              JOINT l_FwLegBlendRoot_JNT
              {
                OFFSET 21.051 0 0
                CHANNELS 6 Xposition Yposition Zposition Zrotation Xrotation Yrotation
                JOINT l_FwLegBlendMiddle_JNT
                {
                  OFFSET 33.1145 0 0
                  CHANNELS 6 Xposition Yposition Zposition Zrotation Xrotation Yrotation
                  JOINT l_FwLegBlendTip_JNT
                  {
                    OFFSET 29.9221 0 0
                    CHANNELS 6 Xposition Yposition Zposition Zrotation Xrotation Yrotation
                    JOINT l_FwLegBlendEnd_JNT
                    {
                      OFFSET 9.62649 0 0
                      CHANNELS 6 Xposition Yposition Zposition Zrotation Xrotation Yrotation
                      End Site
                      {
                        OFFSET 0 0 0
                      }
                    }
                  }
                }
              }
            }
            JOINT r_FwClavicleRoot_JNT
            {
              OFFSET -0.15532 -4.55898 -6.72563
              CHANNELS 6 Xposition Yposition Zposition Zrotation Xrotation Yrotation
              JOINT r_FwLegBlendRoot_JNT
              {
                OFFSET 1.1653 -12.7157 -16.7361
                CHANNELS 6 Xposition Yposition Zposition Zrotation Xrotation Yrotation
                JOINT r_FwLegBlendMiddle_JNT
                {
                  OFFSET 16.2308 -5.97551 28.2387
                  CHANNELS 6 Xposition Yposition Zposition Zrotation Xrotation Yrotation
                  JOINT r_FwLegBlendTip_JNT
                  {
                    OFFSET 26.7017 -9.19239 -9.89204
                    CHANNELS 6 Xposition Yposition Zposition Zrotation Xrotation Yrotation
                    JOINT r_FwLegBlendEnd_JNT
                    {
                      OFFSET 4.44874 -7.74942 3.58114
                      CHANNELS 6 Xposition Yposition Zposition Zrotation Xrotation Yrotation
                      End Site
                      {
                        OFFSET 0 0 0
                      }
                    }
                  }
                }
              }
            }
          }
        }
      }
    }
    JOINT r_legIKClavicle_Root_JNT
    {
      OFFSET -0.323145 -1.55994 -9.59625
      CHANNELS 6 Xposition Yposition Zposition Zrotation Xrotation Yrotation
      JOINT r_legBlendRoot_JNT
      {
        OFFSET 13.2848 -5.74129 -7.13912
        CHANNELS 6 Xposition Yposition Zposition Zrotation Xrotation Yrotation
        JOINT r_legBlendMiddle_JNT
        {
          OFFSET 14.815 16.9375 15.0957
          CHANNELS 6 Xposition Yposition Zposition Zrotation Xrotation Yrotation
          JOINT r_legBlendEnd_JNT
          {
            OFFSET 23.6904 -6.58016 -3.54465
            CHANNELS 6 Xposition Yposition Zposition Zrotation Xrotation Yrotation
            JOINT r_legBlendTip_JNT
            {
              OFFSET 1.47758 -6.16068 -2.41079
              CHANNELS 6 Xposition Yposition Zposition Zrotation Xrotation Yrotation
              End Site
              {
                OFFSET 0 0 0
              }
            }
          }
        }
      }
    }
    JOINT tailRoot_JNT
    {
      OFFSET 2.82533 14.5514 0
      CHANNELS 6 Xposition Yposition Zposition Zrotation Xrotation Yrotation
      JOINT tailMid_JNT
      {
        OFFSET 7.87756 0 0
        CHANNELS 6 Xposition Yposition Zposition Zrotation Xrotation Yrotation
        JOINT tailEnd_JNT
        {
          OFFSET 6.52588 0 0
          CHANNELS 6 Xposition Yposition Zposition Zrotation Xrotation Yrotation
          End Site
          {
            OFFSET 0 0 0
          }
        }
      }
    }
    JOINT l_shoulderBkRoot_JNT
    {
      OFFSET -9.30511 7.998 11.2048
      CHANNELS 6 Xposition Yposition Zposition Zrotation Xrotation Yrotation
      JOINT l_shoulderBkMid_JNT
      {
        OFFSET 0 0 0
        CHANNELS 6 Xposition Yposition Zposition Zrotation Xrotation Yrotation
        End Site
        {
          OFFSET 0 0 0
        }
      }
    }
    JOINT r_shoulderBkRoot_JNT
    {
      OFFSET -9.30514 7.99801 -11.2048
      CHANNELS 6 Xposition Yposition Zposition Zrotation Xrotation Yrotation
      JOINT r_shoulderBkMid_JNT
      {
        OFFSET 0 0 0
        CHANNELS 6 Xposition Yposition Zposition Zrotation Xrotation Yrotation
        End Site
        {
          OFFSET 0 0 0
        }
      }
    }
  }
}
MOTION
Frames:	3
Frame Time:	0.0416667
0 0 0 0 0 -0 9.9718e-017 64 -43 2.52271e-017 6.8505 90 -0.323145 -1.55994 9.59625 -26.4062 61.2999 -67.9538 16.1374 -6.32415e-007 1.68252e-006 -26.9057 10.3846 45.5378 27.0969 -7.10543e-015 -4.26326e-014 4.98513e-015 2.22778e-015 -54.0475 24.8414 3.55271e-015 3.55271e-014 6.99409e-015 9.41296e-016 -49.986 6.77858 -7.10543e-015 -1.42109e-014 -1.05236e-038 1.89576e-022 3.18055e-015 -19.5397 7.10543e-015 -3.20834e-015 0 0 -0 -19.4076 1.98539 -3.88578e-015 -5.84101 -2.26213e-031 -2.2414e-016 -18.5401 5.80111 5.88418e-015 -17.3747 -2.54444e-014 -1.16499e-014 -18.018 7.25644 -4.85917e-015 -21.9362 2.11868e-030 -7.88521e-015 -19.144 8.35871 -2.88325e-014 -23.5872 -8.4747e-030 -1.12214e-014 -16.3943 7.24542 1.55613e-014 -23.8429 6.36111e-015 -1.26869e-014 -19.3877 2.40349 -4.69349e-014 -7.06692 9.54166e-015 -1.2707e-014 -13.796 -11.6756 2.31438e-014 1.67134e-060 -5.6498e-030 1.69494e-029 -15.825 14.8229 15.3879 112.717 -2.35881 -24.301 6.55118 1.98952e-013 7.10543e-015 -7.71367e-009 -7.59931 2.05853 6.73503 5.68434e-014 -4.9738e-014 -1.59028e-015 0 -0 1.34858 -27.5886 -1.33918e-014 92.7985 1.31729e-014 -1.65353e-014 -15.825 14.8229 -15.3879 3.97569e-015 -2.22639e-014 -2.70347e-014 -2.40814 5.46468 -2.69372 -36.0976 -3.24524 -12.7174 -2.40922 6.0083 -1.85921 3.18055e-015 -3.18055e-015 -7.95139e-016 4.72477 -9.87974 5.55569e-015 92.7985 3.50417e-015 -90 2.68891 -0.690234 4.02874 180 7.01671e-015 -180 -4.44089e-016 -2.84217e-014 -14.9226 2.31315e-030 0 5.6498e-030 1.30029e-015 -2.84217e-014 3.94939 -9.95046e-030 1.89576e-022 -0 0 2.84217e-014 15.0019 1.34914e-030 0 -5.6498e-030 -2.689 -0.690236 4.02875 -9.95046e-030 1.89576e-022 -0 9.35075e-005 -0.000392738 14.9226 1.34914e-030 0 -5.6498e-030 6.0207 -9.81639 6.35085e-015 92.7985 3.50417e-015 -90 2.71301 -0.162748 3.99146 180 7.01671e-015 -180 -4.44089e-016 0 -14.9599 2.31315e-030 0 5.6498e-030 1.33097e-015 -0.0431035 3.99141 -9.95046e-030 1.89576e-022 -0 1.26218e-029 0 14.9599 1.34914e-030 0 -5.6498e-030 -2.71301 -0.162761 3.99141 -9.95046e-030 1.89576e-022 -0 -4.44089e-016 0 14.9599 1.34914e-030 0 -5.6498e-030 -7.85698 -6.72885 9.63956 34.106 19.9417 85.9622 -7.85684 -6.72882 -9.63956 -145.894 19.9417 85.9622 0.43207 -4.54112 6.72563 48.7642 26.2605 -112.654 21.051 -2.84217e-014 -2.13163e-014 71.3043 -61.7224 136.813 33.1145 8.3753e-007 -2.8019e-007 140.792 7.01671e-015 180 29.9221 1.42109e-014 7.10543e-015 41.1443 2.39513e-015 4.24131e-015 9.62649 2.13163e-014 3.55271e-015 29.859 -1.7467e-015 90 0.43207 -4.54112 -6.72563 -26.6436 9.37258 -17.9831 1.1653 -12.7157 -16.7361 71.3043 -61.7224 136.813 16.2308 -5.97551 28.2387 140.792 7.01671e-015 -180 26.7017 -9.19239 -9.89204 41.1443 -5.08889e-014 -3.81667e-014 4.44874 -7.74942 3.58114 29.859 -1.7467e-015 90 -0.323145 -1.55994 -9.59625 -62.7106 -9.24999 4.74057 13.2848 -5.74129 -7.13912 -26.9057 10.3846 45.5378 14.815 16.9375 15.0957 -2.65698e-014 -1.82882e-014 -54.0475 23.6904 -6.58016 -3.54465 5.66051e-014 4.49253e-014 -49.986 1.47758 -6.16068 -2.41079 3.97569e-016 -7.95139e-016 -8.54774e-015 2.82533 14.5514 2.3584e-015 4.99157 2.64834e-031 -5.22158e-015 7.87756 0 -4.64622e-015 19.1217 -1.67259e-015 7.66947e-016 6.52588 0 1.743e-015 -1.74098e-062 1.41245e-030 7.06225e-031 -9.30511 7.998 11.2048 -6.8505 -4.18474e-016 -90 0 0 0 4.66553e-033 0 -0 -9.30514 7.99801 -11.2048 173.149 4.18474e-016 -90 0 0 0 2.4957e-031 0 -0 
0 0 0 0 0 -0 4.0592e-009 62.9238 -43 2.52271e-017 6.8505 90 -0.323145 -1.55994 9.59625 -26.4062 61.2999 -67.9538 16.1374 -6.34131e-007 1.6814e-006 -26.9057 10.3846 45.5378 27.0969 7.10543e-015 -2.84217e-014 4.98513e-015 2.22778e-015 -54.0475 24.8414 3.55271e-015 7.10543e-015 6.99409e-015 9.41296e-016 -49.986 6.77858 -7.10543e-015 -1.42109e-014 -1.05236e-038 1.89576e-022 3.18055e-015 -19.4955 0.365834 -0.0247815 -1.0745 0.0235041 -0.099536 -19.4339 1.6949 0.00463976 -5.84101 1.08225e-017 -2.36057e-016 -18.5029 5.74597 -5.24753e-008 -17.3747 -2.54382e-014 -1.16538e-014 -17.9583 7.32655 -1.31471e-006 -21.9362 0 -7.87684e-015 -19.144 8.35871 -2.03865e-014 -23.5872 -1.2424e-017 -1.12189e-014 -16.3943 7.24542 2.6909e-014 -23.8429 6.37353e-015 -1.26881e-014 -19.3877 2.40349 -3.42087e-014 -7.06692 9.55409e-015 -1.27214e-014 -13.796 -11.6756 2.88658e-014 2.38543e-015 0 -0.210304 -15.825 14.8229 15.3879 112.717 -2.35881 -24.301 6.55118 1.13687e-013 1.95399e-014 -7.71366e-009 -7.59931 2.05853 6.73503 2.84217e-014 -4.9738e-014 -1.59028e-015 7.95139e-016 3.18055e-015 1.34858 -27.5886 -1.34337e-014 92.7985 1.31961e-014 -1.64991e-014 -15.825 14.8229 -15.3879 -7.15625e-015 -4.78326e-015 8.00497e-015 -2.40814 5.46468 -2.69372 -36.0976 -3.24524 -12.7174 -2.40922 6.0083 -1.85921 0 0 -0 4.72477 -9.87974 -3.88578e-016 92.7985 3.50417e-015 -90 2.68891 -0.690234 4.02874 180 7.01671e-015 -180 0 0 -14.9226 4.05723e-017 0 1.2424e-017 4.44089e-016 5.68434e-014 3.94939 -3.0866e-017 0 -0 -5.55112e-017 0 15.0019 -3.06719e-017 0 -0 -2.689 -0.690236 4.02875 -3.0866e-017 0 -0 9.35075e-005 -0.000392738 14.9226 -3.06719e-017 0 -0 6.0207 -9.81639 0 92.7985 3.50417e-015 -90 2.71301 -0.162748 3.99146 180 7.01671e-015 -180 0 -2.84217e-014 -14.9599 4.05723e-017 0 1.2424e-017 -3.88578e-016 -0.0431035 3.99141 -3.0866e-017 0 -0 0 -2.84217e-014 14.9599 -3.06719e-017 0 -0 -2.71301 -0.162761 3.99141 -3.0866e-017 0 -0 -4.44089e-016 -5.68434e-014 14.9599 -3.06719e-017 0 -0 -7.85698 -6.72885 9.63956 34.106 19.9417 85.9622 -7.85684 -6.72882 -9.63956 -145.894 19.9417 85.9622 0.432069 -4.54112 6.72563 48.7642 26.2605 -112.654 21.051 -1.74858e-008 -7.83861e-008 71.3043 -61.7224 136.813 33.1145 8.35054e-007 -2.84219e-007 140.792 7.01671e-015 180 29.9221 2.23763e-009 7.56078e-009 41.1443 2.41026e-015 4.2366e-015 9.62649 2.13163e-014 7.10543e-015 29.859 -1.7467e-015 90 0.432069 -4.54112 -6.72563 -26.6436 9.37258 -17.9831 1.1653 -12.7157 -16.7361 71.3043 -61.7224 136.813 16.2308 -5.97551 28.2387 140.792 7.01671e-015 -180 26.7017 -9.19239 -9.89204 41.1443 -5.725e-014 -3.49861e-014 4.44874 -7.74942 3.58114 29.859 -1.7467e-015 90 -0.323145 -1.55994 -9.59625 -62.7106 -9.24999 4.74057 13.2848 -5.74129 -7.13912 -26.9057 10.3846 45.5378 14.815 16.9375 15.0957 -2.65698e-014 -1.82882e-014 -54.0475 23.6904 -6.58016 -3.54465 5.66051e-014 4.49253e-014 -49.986 1.47758 -6.16068 -2.41079 3.97569e-016 -7.95139e-016 -8.54774e-015 2.82533 14.5514 -1.72778e-014 4.99157 2.64834e-031 -5.22158e-015 7.87756 -1.42109e-014 -4.71845e-015 19.1217 -1.67259e-015 7.66947e-016 6.52588 -2.13163e-014 -1.23512e-015 -1.74098e-062 1.41245e-030 7.06225e-031 -9.30511 7.998 11.2048 -6.8505 -4.18474e-016 -90 0 0 0 4.66553e-033 0 -0 -9.30514 7.99801 -11.2048 173.149 4.18474e-016 -90 0 0 0 2.4957e-031 0 -0 
0 0 0 0 0 -0 3.31363e-008 60.9239 -43 0.0268384 6.84353 90.0768 -0.323145 -1.55994 9.59625 -26.4062 61.2999 -67.9538 16.1374 -6.3766e-007 1.67916e-006 -26.9518 10.4552 48.2128 27.0969 1.42109e-014 -2.84217e-014 4.98644e-015 2.22546e-015 -58.7661 24.8414 7.10543e-015 1.42109e-014 0.00813592 0.00723954 -47.9271 6.77858 -7.10543e-015 -1.42109e-014 3.79152e-022 -1.13745e-021 -3.18055e-015 -19.4354 0.863867 -0.0705012 -2.54292 0.0452475 -0.284189 -19.4643 1.28506 0.0131758 -4.35127 0.0031134 0.0203015 -18.4458 5.65587 -1.9828e-007 -17.4164 2.08339e-005 -4.90749e-006 -17.8599 7.44169 -3.63184e-006 -22.3027 -2.20434e-005 -4.09681e-006 -19.144 8.35871 -1.95122e-014 -23.5872 -7.45443e-017 -0.262038 -16.3943 7.24542 2.81997e-014 -23.8429 6.41081e-015 -0.368386 -19.3877 2.40349 -3.28626e-014 -7.06692 9.59136e-015 -0.118119 -13.796 -11.6756 3.10862e-014 -7.93928e-016 9.93923e-017 -0.735695 -15.825 14.8229 15.3879 112.717 -2.35881 -24.301 6.55118 1.7053e-013 1.06581e-014 -7.71367e-009 -7.59931 2.05853 6.73503 2.84217e-014 -4.9738e-014 -6.36111e-015 7.95139e-016 -0 1.34858 -27.5886 -1.33227e-014 92.7985 1.3032e-014 -1.65488e-014 -15.825 14.8229 -15.3879 1.74931e-014 1.63997e-015 7.66253e-015 -2.40814 5.46468 -2.69372 -36.0976 -3.24524 -12.7174 -2.40922 6.0083 -1.85921 -9.54166e-015 0 -0 4.72477 -9.87974 2.22045e-015 92.7985 3.50417e-015 -90 2.68891 -0.690234 4.02874 180 7.01671e-015 -180 0 -2.84217e-014 -14.9226 -6.52262e-017 -5.96354e-016 -0 -8.88178e-016 5.68434e-014 3.94939 -1.01722e-016 -5.96354e-016 -0 8.88178e-016 0 15.0019 9.62863e-017 -5.96354e-016 -0 -2.689 -0.690236 4.02875 -1.01722e-016 -5.96354e-016 -0 9.35075e-005 -0.000392738 14.9226 9.62863e-017 -5.96354e-016 -0 6.0207 -9.81639 4.44089e-016 92.7985 3.50417e-015 -90 2.71301 -0.162748 3.99146 180 7.01671e-015 -180 8.88178e-016 0 -14.9599 -6.52262e-017 -5.96354e-016 -0 -4.44089e-015 -0.0431035 3.99141 -1.01722e-016 -5.96354e-016 -0 -4.44089e-016 0 14.9599 9.62863e-017 -5.96354e-016 -0 -2.71301 -0.162761 3.99141 -1.01722e-016 -5.96354e-016 -0 -1.66533e-016 0 14.9599 9.62863e-017 -5.96354e-016 -0 -7.85698 -6.72885 9.63956 34.106 19.9417 85.9622 -7.85684 -6.72882 -9.63956 -145.894 19.9417 85.9622 0.432068 -4.54112 6.72563 48.7641 26.2605 -112.654 21.051 -4.20105e-008 -2.19842e-007 68.1923 -60.2359 134.091 33.1145 8.30455e-007 -2.90167e-007 136.346 7.01671e-015 180 29.9221 6.39326e-009 2.21009e-008 38.8157 2.2239e-015 4.34841e-015 9.62649 2.13163e-014 3.55271e-015 29.859 -1.7467e-015 90 0.432068 -4.54112 -6.72563 -26.6436 9.37258 -17.9831 1.1653 -12.7157 -16.7361 72.3628 -61.1935 135.755 16.2308 -5.97551 28.2387 140.845 1.44579 175.796 26.7017 -9.19239 -9.89204 41.1239 2.01936 1.15982 4.44874 -7.74942 3.58114 29.859 -8.08068e-015 90 -0.323145 -1.55994 -9.59625 -62.7106 -9.24999 4.74057 13.2848 -5.74129 -7.13912 -24.1214 10.4498 45.0691 14.815 16.9375 15.0957 -3.32257 3.37971 -53.9495 23.6904 -6.58016 -3.54465 1.98416 0.301355 -50.0012 1.47758 -6.16068 -2.41079 3.97569e-016 1.59028e-015 -6.85807e-015 2.82533 14.5514 -1.25733e-014 4.99157 1.2424e-017 -5.2181e-015 7.87756 -4.26326e-014 -3.13638e-015 19.1217 -1.67103e-015 8.07563e-016 6.52588 4.26326e-014 6.66134e-016 -3.18055e-015 1.2424e-017 -0 -9.30511 7.998 11.2048 -6.8505 -4.18474e-016 -90 0 0 0 -5.96785e-018 0 -1.2424e-017 -9.30514 7.99801 -11.2048 173.149 4.18474e-016 -90 0 0 0 -6.20595e-018 7.76503e-019 1.2424e-017 
